/* XPM */
static char *conf[] = {
/* width height num_colors chars_per_pixel */
"    26    26       11            1",
/* colors */
". c #000000",
"# c #808000",
"a c #c0c0c0",
"b c #c0dcc0",
"c c #fffbf0",
"d c #a0a0a4",
"e c #808080",
"f c #ffff00",
"g c #c0c0c0",
"h c #1f7c1f",
"i c #1f001f",
/* pixels */
"gggggggggggggggggggggggggg",
"gggggggggggggggggggggggggg",
"gggggggggggggggggggggggggg",
"gggggggggggggggggggggggggg",
"ggggdddddddddddddigggggggg",
"ggggdbaeeeeeeibceigggggggg",
"ggggdbae.....ibceigggggggg",
"ggggdbae.bcbcebceigggggggg",
"ggggdbae.bba.hbceigggggggg",
"ggggdbae.b.c#bba#.gggggggg",
"ggggdbaee#bb#ddd#.##gggggg",
"ggggdbae#d..#bad#.f#.ggggg",
"ggggdbae#ddd#bad#f#f.ggggg",
"ggggdbbb.bd##bad###..ggggg",
"ggggd####d#b#bad#bf#..gggg",
"ggggd#ddbbd.#bad#.dfd#.ggg",
"ggggd.###dbdd...dbd.##.ggg",
"ggggd.###ddbddbdbdb.##.ggg",
"ggggda..#d.##db.##d#..gggg",
"ggggda..#.###bd.####..gggg",
"ggggeeee#.#..##...##.ggggg",
"gggggggg#..gg##.gg##.ggggg",
"ggggggggggggg...gggggggggg",
"gggggggggggggggggggggggggg",
"gggggggggggggggggggggggggg",
"gggggggggggggggggggggggggg"
};
