/* XPM */
static char *dump[] = {
/* width height num_colors chars_per_pixel */
"    32    32       20            1",
/* colors */
". c #000000",
"# c #800000",
"a c #008000",
"b c #808000",
"c c #c0c0c0",
"d c #fffbf0",
"e c #808080",
"f c #00ff00",
"g c #ffffff",
"h c #c55b74",
"i c #c56d9c",
"j c #c58834",
"k c #c59a5c",
"l c #c66f38",
"m c #c6ded0",
"n c #1f7c1f",
"o c #007c00",
"p c #003c00",
"q c #1f001f",
"r c #ef0000",
/* pixels */
"gggggggggggggggggggggggggggggggg",
"ggggggggggg.....gggggggggggggggg",
"gggggggggg.klbl..ggggggggggggggg",
"ggggggggg.klllil.ggggggggggggggg",
"ggggggggnkl#####qeenqnnqnegggggg",
"nnnnnnnnnnnnnnnnnnnnnnnnnnnnnggg",
"nbhilllllllbillllllllllllllll..g",
"nlllblllllleelllllllllllllllllln",
"nlllllllllllllllgggllgmlllllllln",
"nllggdggllghdlggglclglldllllllqn",
"nlllldlldlghdlglglmlglldhh####ng",
"nlllldllclgldlglglclglldllllbngg",
"nlllldllmlghclglgldlglmcllllnggg",
"gnnlldllclglmlglclclgglllllngggg",
"gnllldlgdlglclglllclglllllbngggg",
"gnllldgglllcmlchlldlglll##nggggg",
"gnlllllllllhlhllllchlllll#nggggg",
"ggnlllllllillllllllhelhlbngggggg",
"ggnlllgggggmcddcmcdccllnnggggggg",
"ggnlhlllllldllllllllllhgggrggggg",
"ggnnllilllbklliilll###nggrrrgggg",
"gggnlllllllkllllll#llnggrr.rrggg",
"gggn#lllllllllllllllnngggrrrgggg",
"gggn##b#bbnnnnnnn#bqnggggarggggg",
"ggggnnnnnnn###nnnnnnggggaggggggg",
"ggggggggggn#llknggggggggaggggggg",
"ggpgggagggnkllkngggggggagggggggg",
"gggpggpgfgnkljknggpgoggaggaggggg",
"ggagogopofnkjlhngpgfgogagagggggg",
"gafoaofpofpkjlkngpfaofafogoggggg",
"gaopoaopop.qbbqnpopaoopaoogggggg",
"gopapoaapff....poaaopoaaaoaggggg"
};
