/* XPM */
static char *fonts[] = {
/* width height num_colors chars_per_pixel */
"    72    32      249            2",
/* colors */
".. c #040204",
".# c #748284",
".a c #b4c2c4",
".b c #3c4244",
".c c #aca6a4",
".d c #5c625c",
".e c #8c9ea4",
".f c #cce2e4",
".g c #6c7274",
".h c #d4c29c",
".i c #1c221c",
".j c #8c867c",
".k c #bcd2d4",
".l c #c4b68c",
".m c #7c726c",
".n c #4c524c",
".o c #9caaac",
".p c #2c322c",
".q c #c4c2bc",
".r c #acb6b4",
".s c #8c928c",
".t c #6c625c",
".u c #0c120c",
".v c #848e8c",
".w c #9c9e94",
".x c #dcf2f4",
".y c #848274",
".z c #6c7a7c",
".A c #d4d2cc",
".B c #9c9694",
".C c #9ca69c",
".D c #c4cac4",
".E c #4c4a44",
".F c #2c2624",
".G c #7c7a74",
".H c #5c5654",
".I c #343a3c",
".J c #8c9aa4",
".K c #1c1614",
".L c #646a6c",
".M c #dce6dc",
".N c #6c6a5c",
".O c #b4cacc",
".P c #c4dadc",
".Q c #acbebc",
".R c #64625c",
".S c #8c8e8c",
".T c #a49e94",
".U c #acaeac",
".V c #c4bebc",
".W c #94928c",
".X c #848a84",
".Y c #d4dad4",
".Z c #cccac4",
".0 c #847a74",
".1 c #6c6a6c",
".2 c #444a4c",
".3 c #d4eaec",
".4 c #74726c",
".5 c #242a24",
".6 c #d4ba8c",
".7 c #3c3634",
".8 c #6c7a84",
".9 c #bcc2bc",
"#. c #dccaa4",
"## c #948a84",
"#a c #ccd2cc",
"#b c #545a5c",
"#c c #a4b2b4",
"#d c #34322c",
"#e c #b4b6ac",
"#f c #141a14",
"#g c #848284",
"#h c #5c5e5c",
"#i c #1c1e1c",
"#j c #44423c",
"#k c #d4e2e4",
"#l c #24221c",
"#m c #8c8a8c",
"#n c #ccbe94",
"#o c #54524c",
"#p c #a4aaa4",
"#q c #ccc6c4",
"#r c #84969c",
"#s c #9c9ea4",
"#t c #ecfefc",
"#u c #bcbeb4",
"#v c #a4a69c",
"#w c #544e4c",
"#x c #2c2e2c",
"#y c #3c3a34",
"#z c #140e0c",
"#A c #64666c",
"#B c #dcdadc",
"#C c #0c060c",
"#D c #7c8284",
"#E c #b4aaa4",
"#F c #5c626c",
"#G c #949e9c",
"#H c #8c8a7c",
"#I c #c4d2d4",
"#J c #7c766c",
"#K c #c4c6bc",
"#L c #8c969c",
"#M c #14120c",
"#N c #84929c",
"#O c #e4f6fc",
"#P c #c4ced4",
"#Q c #4c4e54",
"#R c #7c7e74",
"#S c #949a94",
"#T c #dceef4",
"#U c #746a64",
"#V c #bccace",
"#W c #ccdae2",
"#X c #b4bec1",
"#Y c #0c0a0c",
"#Z c #646660",
"#0 c #a4a2a4",
"#1 c #b4aeac",
"#2 c #94969c",
"#3 c #cccec5",
"#4 c #847e7b",
"#5 c #746e6c",
"#6 c #747673",
"#7 c #dceaf4",
"#8 c #e4ca94",
"#9 c #ccb694",
"a. c #e4eae4",
"a# c #d4be9c",
"aa c #bcc6cc",
"ab c #34363c",
"ac c #44464c",
"ad c #24262c",
"ae c #a4aeb4",
"af c #3c3e44",
"ag c #747a79",
"ah c #948e8c",
"ai c #645e5c",
"aj c #241e1c",
"ak c #9ca6ac",
"al c #342e2c",
"am c #949aa4",
"an c #040604",
"ao c #b4c6cc",
"ap c #acaaa5",
"aq c #6c7679",
"ar c #d4c6a1",
"as c #acbabc",
"at c #8c9694",
"au c #6c6662",
"av c #9ca29c",
"aw c #dcf6fc",
"ax c #bcbab4",
"ay c #84867c",
"az c #d4d6d4",
"aA c #c4cecc",
"aB c #4c4e4c",
"aC c #2c2a2a",
"aD c #5c5a58",
"aE c #1c1a1a",
"aF c #646e74",
"aG c #a4a29c",
"aH c #acb2b1",
"aI c #949694",
"aJ c #d4dedc",
"aK c #6c6e6d",
"aL c #6c7e8c",
"aM c #bcc6c4",
"aN c #343634",
"aO c #b4bab4",
"aP c #848685",
"aQ c #444644",
"aR c #d4e6ec",
"aS c #242624",
"aT c #545654",
"aU c #a4aeac",
"aV c #3c3e3c",
"aW c #dcded8",
"aX c #7c8689",
"aY c #94a2a4",
"aZ c #c4d6dc",
"a0 c #141614",
"a1 c #bcced4",
"a2 c #ccdee4",
"a3 c #9c9a94",
"a4 c #444e4c",
"a5 c #dccea4",
"a6 c #9ca2a4",
"a7 c #5c666c",
"a8 c #746e64",
"a9 c #0c0e0c",
"b. c #747e84",
"b# c #ccba94",
"ba c #b4c2cc",
"bb c #5c6264",
"bc c #cce2ec",
"bd c #8c8684",
"be c #4c5254",
"bf c #2c3234",
"bg c #c4c2c4",
"bh c #acb6bc",
"bi c #8c9294",
"bj c #848e94",
"bk c #9c9e9c",
"bl c #dcf2fc",
"bm c #bcb6b4",
"bn c #84827c",
"bo c #d4d2d4",
"bp c #9ca6a4",
"bq c #4c4a4c",
"br c #7c7a7c",
"bs c #6c6a64",
"bt c #acbec4",
"bu c #040a0c",
"bv c #646264",
"bw c #8c8e94",
"bx c #a49e9c",
"by c #949294",
"bz c #848a8c",
"bA c #cccacc",
"bB c #847a7c",
"bC c #d4eaf4",
"bD c #747274",
"bE c #242a2c",
"bF c #7c8a94",
"bG c #ccd2d4",
"bH c #343234",
"bI c #b4b6b4",
"bJ c #141a1c",
"bK c #5c5e64",
"bL c #1c1e24",
"bM c #444244",
"bN c #d4e2ec",
"bO c #242224",
"bP c #ccbe9c",
"bQ c #545254",
"bR c #a4aaac",
"bS c #bcbebc",
"bT c #a4a6a4",
"bU c #3c3a3c",
"bV c #949ea4",
"bW c #8c8a84",
"bX c #c4d2dc",
"bY c #7c7674",
"bZ c #c4c6c4",
"b0 c #141214",
"b1 c #7c7e7c",
"b2 c #949a9c",
/* pixels */
"#8#8.M#t#tbl#Oaw#Oaw#Oaw#Oaw#Oaw#Oaw#Oaw#Oaw#Oaw#Oaw#Obl#O.xbl#O.x#O#Oaw#O#O#O#Oaw#Obl#Obl.x#Oblaw#Oaw#Oaw#Oaw#Oaw#Oaw#Oaw#Oaw#Oaw#Oaw#O.x#O#t.M",
"a5a5#T.3bC.fbN.fbNbN.fbNaR.fbNbN.faRbNbc#kaRbN.fbN.f#kaRbC#7#T#T#TbCaRaRaRbNbcaRbCaR#T#T#TbCbNaR#ka2.f#kbcbN#kbcbN#kbcbN#kbcbN#kbcbN#kbcbNa2bC.3",
"#.#.bNaRaR#kbc#kbc.fbN.fbc#kbc.fbN.f.fbcbNa2a2.faR#TbCbN.aba.e.z#6#ba4.2acaQaQ.2#b#b.g#L#Lbta2a2bCaRa2a2a2.fbc#kbc.fbN.fbc#kbc.fbN.fbc#k.f.faR#k",
"arar#kaRbca2a2a2a2a2a2a2a2.fa2a2a2a2#W#W.3.PaZbzbfanan..anan..a9a9bL.Ka0aSadad.K#iaE#Man..an....anaCb.b.a1bC.3a2#Wa2a2a2a2a2a2a2a2a2a2a2a2a2bNa2",
"arar.fbc#k#Wa2#Wa2#Wa2a2#Wa2#W.P#W.PbC.3.oafafan..a9#za0aEaE#bacaQ.KbJ.Kbj.sbiaEa0.KafbKbK#i.Ka0b0an#CanaNaYbVaRa2a2.Pa2a2a2a2a2a2#Wa2#W.Pa2bc#W",
"arar#Wa2.PaZaZaZaZaZaZ.PaZaZ.Pbc.faq#Cbu#Ca0a0b0bj#Db.aEbObOaIbZaM#bbKbKbIaOaObb#b#baM.v.X#faEaEag.vaEa0aE#za9anbba7#W#W.PaZaZ.PaZaZaZaZaZaZa2#W",
".h.h#W.P#WaZaZaZaZaZaZ.kaZbXa2aq.gananana9ajbOaE.X#a#abb.n#QaHaObS.raH#c.Cava6aHaHaHaOaH.U#Q#h#baAbWaEaEbO.ub0a9#Cana7.P#W.PbX.k.PaZaZaZaZaZ.PaZ",
".h.haZaZ.P.k.kaZ.k.kaZa1a2.fbz#C#Yanaj#iacbHbH.K.baMaM.DbIas#SaPaX.v.X.v#m.v.v.X.v.v.s#GavaHaMaM.D.b#za9bHacacaSa9a9#Caqaq#W.kbX.kbX.kbX.ka1#W#I",
".hbPaZbXbXa1a1a1#V.k#P#V.baf..aEaEaCaCaCb1#a#a#VaH#Rb.#S.raO#a.gaK..an#Can#Can#Y#C#Ya9aNaN.g.wbkat.r#a#I.YaP.XbOaCaS#l#Y#YbfbtbtbXa1#V.ka1a1#Ia1",
".h.h#Pa1a1#V#V#V#VaZ.Pb.#Y#Ya0bObO#x#faE.5aMaMaHaP#KaM.DaxaO#a.Gag.u.FaSaCaCaC.5#laSaEa9#M#YaV.I.waIaHaH#abEaC#z#x#xaSaE#i#YaKaF#I.O.O#V#V#Va1a1",
".hbP#V#V#V.ababaa1aPaX#Y#iaEaSaFbs.Y#B.YbZ#Sa3avaC.....2az.A.9az#BaIaNaNaQaQaQ.EbMaQ#j.7.I#daCaCa9.i#v.Cav#3#Ia..Ma..gaSbOaSa9a9aqa1#P.a.a.a#Vaa",
"bP.haoaoao#Xba.aba#Qbq#Y.F.5#daEaEaQbG.A#0bRapaV..#faEan#g#gaWbg.9.Ybv#ZbM#o#o.naBaBbq.2.E#j.I.Ial#YafbUaH#p#paJaBaB#M#xal#xb0b0aVbtasao#X#Xaoao",
".h.hao.a.a.QaoaobRbObOa0aNaNaVaSaC#Qbg.9bTb1b1anbOaCaC#faSaS.D#3.AboaHaHaQbe#wbe#obQ#o.n#waBaQ.EbU#x#Y#YagaUaUaAbQbebOaVaVbUaj#ibOa6aYaabtas.a.9",
"bPa##XasaObh.a.aaKb0#zbEbqbq.Wazaz.AbTap.S.Ka0bHaQaQ.EbM#xaCaj.Uapaz.Z#qbZ.2bqaQaTaTaTbQbQbQ#obQaBaB#dbH.iaGav.U.YbGaW#S.waQ#x#x.K.g.4ba.rbhas#X",
".hbP#Xasbh#c#XasaDb0b0aNbH#db0aQ.E#qap.caKa0a0aQbq#waB.EbM#jbJ#w#Q.A#qbZ.ZbTbTbQ.2bq.2ac.2aQ.2aQaQaQ#xal.2.9.9.U#3aAaB#Y#Y#xaVbU.K.R.R#X#caHasas",
"#na#bh#c#caeaHaH.2.K#fbMbxbk.VbA.ZbIaG#0#QaCaCbQaB#obe#obqaBaQbJaEauaHbIbIbIbIbT.q.V.Z.Z.Z.Z#3#3.Z#3#3#3#K#K.q#p#u#u#3bS.9bk.E.2#lbeaTbhaeaeaebh",
"a#bP.raeaeaU#cbhbeaEaEbM.XbWap.Vaxbm.c.caD.pbHaTaBbQaBbQaB#waBaC.5bY.BaIbxbxbx.X.q.q#q#q.Z.Z.Z.Z.Z.Z.D.Z.9axax#p#eaO#u#papaXbUaV#laT#b.r.obRaeaH",
"bP.haHbRaebT#c#caT.ibOaVbOadan#j#j.q.cbT#ZbHbHaT#w.nbQ.nbQbQ.EafaV#0aG.c#haK.1bdbn.y.G.G#R.G.G#R.G.G#R.GaG#e#e.w#u#u#yan..#i#ybU.F#b#baH.obpaUae",
"a##naea6bpaYbRbRbF.Fad.7aBaBahbS.V#eaGaG#m.b.bbqbe#waBbQ.E.2bQ#vbT#E.c.c.Tb0#M#Y#iaj#i.iaj.iajajbLbOaEa0aEay#g.w.c#vbI.XbWbqaVbU#xb.b.aeaYa6bpbR",
"a#bPbRa6#s#sakbpam.I.IaCbv.Rbx.G#4ah.c#v.B#h#b#jbQ#QaBaBaQaQ#Dap#E.B#1#1bUa9a9#x#x#xbH#dbfbH#x#d#xaN#lbOaQ.S.Sa3aPbW#5ah.SaT#d#dab#r#Nbp#G#G#sbR",
"#na#bpb2b2#S#2aIakaFaFaS.L.LaQb0#MaBaGbxahbWah#h.b#w.naQ#g#g.Bah.Wa3aCaC#iaVaVbqbqaBaBaB#waBaB#QaBbM#h#h#g#g#g.WaB.2b0.IbU#AbHbHa7bpbTb2#2b2b2a6",
"a##na6aI#LaIbibiaYbj#N.2.TbxaT#h#baG##bW.WbdbW#gaTaf#j#A.BaI.j.Ta3aD#Mb0aNaQ.EaB.n#o#Q#o#QbQ#obQ.EaTbrb1b1bdbWbB.Bby#h.E.2ah.2.2aXa6a6biaIaI#2av",
"#na#bkataIatbiaIbibVbV.#bn#4bOaTaT#6bvbbaDbWbWb1#4b1brbWbnbnbW#4#4aj.iaSbMaBbqbe#wbe#obQ#oaB.2.EaT#6#6bYbn#w#Q#bbs.1bQ.ibObs#6.g.JaIbibiatataI#G",
"#nbPb2.Sbw.Sbw.S.Sbz#mb2b.b..4aPbnbW.R#ZbDbWbWa8aP.GbrbD.4.mbn.R.dbEbUbUaQaQaQ.2aBbqbe#h#h.1.mbDbD#4auau#4.g#5#obB.0brbs.1aK.Jam.Sbz.S.Sbw.Sbw#2",
"b#a#aI.Sbz.Sbzbz#mbzbz#m.eambeauaubn#h#h#6aKbs#Q#o#gay#4#6bY#5.GbYbs#h#hbvbv.Rbvau.1#5.4.4#6bYbD.0bq.b.bau#5aKaB#6.m.tacac#Nbw.Sbz#mbjbz.S.v.SaI",
"b#b#byaPaPaPaPaPaPaPaPaP#D#g.sbFbF#jaiaibn.0.GaV#5#H#HaCaE#f#5#4#4.G#4#4.G.G.G#4.G.G.G#UbsaEbO#l#4#5aN.7#U.G.0.R.7.7aLaIaI#DbzaPaPaPaPaPaPaPaPbi",
"b##nbi#g#gaP#DaP#DaP#gaPaPaPb1.S.SbFaVaV.N.t#ZanaBbM#j..a9a9bs#4.0aS.F.5.m.m.maCbObO#J#U.1a9....aN#w....aT#U#UaN.8.8bib1b1aP#gaP#DaP#gaPaPaP#g.s",
"b#b#.s#g#D#gbn#Dbn#Dbn#D#D#D#gb1b1#mbFbF#QaK#5aQbU.1.LaCa0.Kbn.H.H..#Ya9bY#Ubsan....#o#4bnaE#i#ibKbUaN.IauaBbqaLbibib1#g#Dbn#D#D#g#Dbn#D#Dbn#D.S",
"b##9#mb1b1b1b1brb1brb1br#Rbrb1brb1b1brag#4.vbz#D.LbLbJb0aCaCa0#i#i#x#x#xbO#i.iaC#x.paja0.KaC#iaEaEbbb.b.bj#4#DbYb1b1brb1b1brb1brb1brb1brb1b1b1bd",
"#9#9.Xbr.Gb1brbragbrbrbrbrbrbrbrbrbrb1brbr#6bY#gbzb..#a7a4#QaNaC.Fal#xal.iaj#ial#xaladaNaNa4#F#Fb.aXaP#gbYagbrb1brbrb1brbrbrbrbr.Gbrbrbrb1brb1aP",
".l.l#g.Gbr#6.Gag.Gagagag.Gagag.G#6agbY.G#6br#6bragbDbY#6.GbYbr#Db1#g#g#gaPaPaP#g#D#gbnb1brag#6#6#6bYbr.GagbY#6#6br#6ag#6ag.Gag.GagagbYagbY.Gbr#g",
".6.6ay#g#g#4brb1brb1.0b1br#Rbrb1b1#4b1b1b1b1b1b1#4b1b1b1brb1b1.Gb1br#Rbr.Gbrbrbrb1#Rbrb1br#RbrbBb1b1b1brb1b1#4b1b1#4b1#4b1b1brb1bBb1b1b1b1b1bnay"
};
