/* XPM */
static char *open[] = {
/* width height num_colors chars_per_pixel */
"    22    22        5            1",
/* colors */
". c #000000",
"# c #808000",
"a c #c0c0c0",
"b c #ffff00",
"c c #ffffff",
/* pixels */
"aaaaaaaaaaaaaaaaaaaaaa",
"aaaaaaaaaaaaaaaaaaaaaa",
"aaaaaaaaaaaaaaaaaaaaaa",
"aaaaaaaaaaaaaaaaaaaaaa",
"aaaaaaaaaaaa...aaaaaaa",
"aaaaaaaaaaa.aaa.a.aaaa",
"aaaaaaaaaaaaaaaa..aaaa",
"aaaa...aaaaaaaa...aaaa",
"aaa.bcb.......aaaaaaaa",
"aaa.cbcbcbcbc.aaaaaaaa",
"aaa.bcbcbcbcb.aaaaaaaa",
"aaa.cbcb...........aaa",
"aaa.bcb.#########.aaaa",
"aaa.cb.#########.aaaaa",
"aaa.b.#########.aaaaaa",
"aaa..#########.aaaaaaa",
"aaa...........aaaaaaaa",
"aaaaaaaaaaaaaaaaaaaaaa",
"aaaaaaaaaaaaaaaaaaaaaa",
"aaaaaaaaaaaaaaaaaaaaaa",
"aaaaaaaaaaaaaaaaaaaaaa",
"aaaaaaaaaaaaaaaaaaaaaa"
};
