/* XPM */
static char *question[] = {
/* width height num_colors chars_per_pixel */
"    27    27        2            1",
/* colors */
". c #ffffff",
"# c #080001",
/* pixels */
"..........#######..........",
"........##.......#.........",
".......#..........#........",
"......########.....#.......",
"..............##....#......",
".....#..........#.#.#......",
"...#.............##.##.....",
"...#.............#.#.#.....",
"..#...............#.##.....",
"..#......##.......##.#.....",
".#......####......#.##.....",
".#.....#.#..#.....#.#......",
".#.....##...#.....##.......",
".#######...#......#........",
".................#.........",
"..........#......##########",
".........#......###########",
"........#......#.##########",
"........#.....#.#....######",
"........#.....###.########.",
"........#.....#########....",
"........#######.######.....",
"........########.##........",
"........#.....#.##.........",
"........#.....##...........",
"........#.....#.#..........",
"........#.....##..........."
};
