/* XPM */
static char *tools[] = {
/* width height num_colors chars_per_pixel */
"    26    26       19            1",
/* colors */
". c #008000",
"# c #c0c0c0",
"a c #c0dcc0",
"b c #a6caf0",
"c c #fffbf0",
"d c #a0a0a4",
"e c #00ff00",
"f c #ffffff",
"g c #7ff27f",
"h c #4a404a",
"i c #336c65",
"j c #030802",
"k c #410811",
"l c #646565",
"m c #747475",
"n c #364d42",
"o c #407c1f",
"p c #2c672c",
"q c #00672c",
/* pixels */
"ffffffffffffffffffffffffff",
"fffffffffffffhhhffffffffff",
"fffffffffffchhjdffffffffff",
"fffffffffffmkdjcffafffffff",
"fddfffffffcjddn#fdncffffff",
"#dabmfffff#nddddmchdffffff",
"fdlcamfffffhdd##cfkfffffff",
"ffdhlmndfffldd#ac#afffffff",
"fffffhmmnf#jd#acndffffffff",
"fffffffchdjddaakafffffffff",
"fffffffffjld#cldffffffffff",
"fffffffffkd##dnffcffffffff",
"ffffffffadd#akhcdjffffffff",
"fffffadlnd#addhpeelcmdffff",
"fffffjknd#a#kfd.ee...qffff",
"ffffdlddd#aldck..jee..h#ff",
"fffcjddldac#ha#ld#e..j.qmi",
"fff#khjhncfck##aad.j..jq.g",
"fffcd#cccffdh#####mq....jn",
"ffca##ac#c#jdddd####lj.qlc",
"ffc####ahdjmddd#######qqaf",
"ffa#####hhddddd#######ddcf",
"fffca#######d##a######aacf",
"fffcca########aaaaaaaaacff",
"fffffcaa#####acccccaaaccff",
"ffffffffffffffffffffffffff"
};
