/* XPM */
static char *toolbox[] = {
/* width height num_colors chars_per_pixel */
"    26    26       12            1",
/* colors */
". c #000000",
"# c #008000",
"a c #808000",
"b c #000080",
"c c #800080",
"d c #008080",
"e c #c0c0c0",
"f c #808080",
"g c #ff0000",
"h c #ffff00",
"i c #00ffff",
"j c #ffffff",
/* pixels */
"jjjjjjjjjjj..jjjjjjjjjjjjj",
"jjjjjjjjjjj.ejjjjjjjjjjjjj",
"jjjjjjjjjjj.hjjjjjjjjjjjjj",
"jjjjjjjjjjje.jjjjjjjjjjjjj",
"jjjjjjjjjjj.ejjjjjjjjjjjjj",
"jjjjj.jjjfj.ejjjfjjjjjjjjj",
"jjjjjjjf..f.hjjfffjjjjjjjj",
"jjjj.jf.jjj.effdbbbfjjjjjj",
"jjjj.ef.jjj.hddbjjbdffjjjj",
"j.jjf.efjff.efbj.f.j.ddffj",
"j.ejej.eg..hf.bjjbjf.ddd..",
"jj.ef...gj.ah.bjejee.f..d.",
"jjj..fd..gj.hbjee...f.#d#.",
"jjjfhjdfd.ggbee.ff..d##..j",
"jjjfiijjfbbbje.ff.#.#d.jjj",
"jjjfhh.fjbejb....dd...jjjj",
"jjjfii.jfjjff..#d##..jjjjj",
"jjjfhhf.fihjjd#d#dd.jjjjjj",
"jjjfhhihiihijd#d#dd.jjj...",
"jjjfiihihhihj#d#d##.jj.h..",
"jjjffhihiihijd#d#dd.jjhja.",
"jjjjjfhihhihj#d#d#..j.ja.j",
"jjjjjjjjfhihj#d..jj.hj.jjj",
"jjjjjjjjjffij..jjj.hjajjjj",
"jjjjjjjjjjjffjjjjjg.a.jjjj",
"jjjjjjjjjjjjjjjjjjcc.jjjjj"
};
