/* XPM */
static char *undo[] = {
/* width height num_colors chars_per_pixel */
"    22    22        3            1",
/* colors */
". c #000080",
"# c #808080",
"a c #c0c0c0",
/* pixels */
"aaaaaaaaaaaaaaaaaaaaaa",
"aaaaaaaaaaaaaaaaaaaaaa",
"aaaaaaaaaaaaaaaaaaaaaa",
"aaaaaaaaaaaaaaaaaaaaaa",
"aaaaaaaaaaaaaaaaaaaaaa",
"aaaaaaaaaaaaaaaaaaaaaa",
"aaaaaaaaaaaaaaaaaaaaaa",
"aaaaaaaaaaa....#aaaaaa",
"aaaaa.aaa..aaaa.#aaaaa",
"aaaaa..a.aaaaaaa.aaaaa",
"aaaaa...aaaaaaaa.aaaaa",
"aaaaa....aaaaaaa.aaaaa",
"aaaaa.....aaaaa.#aaaaa",
"aaaaaaaaaaaaaa#.aaaaaa",
"aaaaaaaaaaaaaaaaaaaaaa",
"aaaaaaaaaaaaaaaaaaaaaa",
"aaaaaaaaaaaaaaaaaaaaaa",
"aaaaaaaaaaaaaaaaaaaaaa",
"aaaaaaaaaaaaaaaaaaaaaa",
"aaaaaaaaaaaaaaaaaaaaaa",
"aaaaaaaaaaaaaaaaaaaaaa",
"aaaaaaaaaaaaaaaaaaaaaa"
};
