/* XPM */
static char *zoom_previous[] = {
/* width height num_colors chars_per_pixel */
"    22    22        5            1",
/* colors */
". c #000000",
"# c #800000",
"a c #808080",
"b c #c0c0c0",
"c c #ffffff",
/* pixels */
"bbbbbbbbbbbbbbbbbbbbbb",
"bbbbbbbbbbbbbbbbbbbbbb",
"bbbbb#####cbbbbbbbbbbb",
"bbbb#ccccc#cbbbbbbbbbb",
"bbb#ccccccc#cbbbbbbbbb",
"bb#ccc...ccc#cbbbbbbbb",
"bb#ccc.cc.cc#cbbbbbbbb",
"bb#ccc.cc.cc#cbbbbbbbb",
"bb#ccc...ccc#cbbbbbbbb",
"bb#ccc.ccccc#cbbbbbbbb",
"bbc#cc.cccc#ccbbbbbbbb",
"bbbc#ccccc##cbbbbbbbbb",
"bbbbc#####cc.aacbbbbbb",
"bbbbbccccccb.aaacbbbbb",
"bbbbbbbbbbbb..aaacbbbb",
"bbbbbbbbbbbbc..aaacbbb",
"bbbbbbbbbbbbbc..aaacbb",
"bbbbbbbbbbbbbbc..aacbb",
"bbbbbbbbbbbbbbbc..acbb",
"bbbbbbbbbbbbbbbbcccbbb",
"bbbbbbbbbbbbbbbbbbbbbb",
"bbbbbbbbbbbbbbbbbbbbbb"
};
