/* XPM */
static char *abut[] = {
/* width height num_colors chars_per_pixel */
"    91    89       13            1",
/* colors */
". c #000000",
"# c #0000f0",
"a c #0000f8",
"b c #00f800",
"c c #00fc00",
"d c #f0f8f0",
"e c #f0f8f8",
"f c #f0fcf0",
"g c #f0fcf8",
"h c #f8f8f0",
"i c #f8f8f8",
"j c #f8fcf0",
"k c #f8fcf8",
/* pixels */
"dfhfdfhfdfdddfdfdfifdfhfddedddddddddddddddeddddddddfhfdfhedfddddddidddhfdfdgdddfhgdfddhgdfh",
"dedddedddifddidddddddeddfhfdfifdfifbcbcbcbcbcbcbcbbbbbbbcdddjefdjdfdfdedddhdfdheddddjeddddf",
"hfdfhfdfdddfdfdfifdfhfddeddddddddddbdbiddbbhdbdidcdgdcddbfdeddddedddifdfhgdddgdfdfhedfdfhed",
"dddedddifddidddddddeddfhfdfifdfifdfbkdfbfhcbfefbdbdbddgbbdjdfdjdfdjdddddddfdhdddhefdddhefdf",
"dfhfdfdddfdfdfifdfhfddedddddddddddibdbdddbbedbdfdcdjdbdjbdedddedddefdfifddifdfdgdddfhgddddh",
"dedddifddidddddddeddfhfdfifdfifdfdfbfdfbgdcbfhdbebdbgddbcdfhfdfhfdddhdddfddddehdfdheddfdjed",
"hfdfdddfdfdfifdfhfddedddddddddddiddbdbehdbbddcefhcdddcddbddedddedfhgdfdehfdghfdddgdfddhedfd",
"dddifddidddddddeddfhfdfifdfifdfdfdfbfhfbfdcbdddbdbfbhdgbchfdfhfdddddddjdddddddfehdddjefdddh",
"dfdddfdfdfifdfhfddedddddddddddidddibdbdddbbfhcdfdbdgdbdhbdeddedfhgdfhedfdghfdehfdfdedddfhgd",
"difddidddddddeddfhfdfifdfifdfdfdfdfbfdfbjdbbdedbjbdbfdfbcdfdjdddddddfdddhdddfddddejdfdheddd",
"dddfdfdfifdfhfddedddddddddddidddiddbdbiddcbgdcdddcddhbddbddddfefdjeddfifdfedhfdghddddgdfdfh",
"fddidddddddeddfhfdfifdfifdfdfdfdfdfbcbcbbbbbbbcbbbcbcbcbcejdedhdddfdhdddddjddeddfdfehdddhed",
"dfdfdfifdfhfddedddddddddddidddidddiddddfefdfdhdghdeddedddddfdfdfedhfefdfiddfdfhddehfdfdgdfd",
"didddddddeddfhfdfifdfifdfdfdfdfdfdfdfedddhddfeddfdfdfdfhgddhddehfdddddhdfddehdfefddddehdddj",
"dfdfifdfhfddedddddddddddidddidddidddhfdjdgddhfdddhddhdeddfdgdfdddfefhfeddfhfddddhfdghfdfded",
"dddddddeddfhfdfif##a###############a###a####a###a##a############a########addfejddedddddejdd",
"dfifdfhfddedddddd###jdgdfda#fdgdfd##fddddd##fddfdf##fdfdkd##ehfdhd##edfdd#fdhddfdfhfdghddfd",
"dddddeddfhfdfifdfa#dddddd##dddddda#ddgdfda#ddkddh##dedhdd##dfddef##dfdhef#hefddehddeddfddeh",
"ifdfhfddedddddddh#fdghfda#jdghfd##jddhdd##jdddfda#fdjdfe##gdhdfd##ehddfd##dddfhfdfdfhddghfd",
"dddeddfhfdfifdfef#dhddd##dddddda#ddgdfda#ddgddd##ddeddd##dddfed##hfdfed##afdhedddehdfeddddd",
"dfhfddedddddddhdd#gdfda#jdgdfd##jddddd##jdddjda#fhfdfd##fhfedh##eddddh##d#dfdfdfhfdddfhfdgh",
"deddfhfdfifdfefdf#ddd##ddddhda#ddgdjda#ddgddd##ddeddha#dedddf##dfdfif##ef#heddheddfehddeddd",
"hfddedddddddhdddi#fha#fdghfd##fddhdd##fddhfda#fhfdfd##fdjdfh#addhedd##ddh#fdfdfdfdhfdfdfhfd",
"ddfhfdfifdfefdfdf#d##ddhddda#ddkdfda#ddkddd##ddeddha#dddded##dfdfdf##efdfadddidddgdddehdded",
"ddedddddddhdddidd#a#fdgdfd##fddddd##fdddfda#fhfdfd##fdghfd##gddedh#addhdd#fdfdfdhdfdjdfdfdj",
"fhfdfifdfefdfdfdf##dhdddda#dhgdfda#dhgddd##ddeddha#dddddd#adhfdjd##fdfdgd#didddgdddedddehdd",
"edddddddhdddidddi#fdgdfh##fddddh##fdddfha#fhfdfd##fdghfda#fddddda#ddhedd##fdfdhdfdjdfdjdfdf",
"fdfifdfefdfdfdfdf#dddhda#ddkdfda#ddkddd##ddeddha#dddddd##dhfdfe##fdgdfd##ahddgdddedddedddeh",
"ddddddhdddidddidd#ghfd##fddddd##fdddfda#fdfdjd##fdghfda#fdeddh##ddhddd#aj#fdddfhfdfhfdfdjdf",
"fifdfefdfdfdfdfdf#ddda#ddghfda#dhgddh##ddiddda#dddddd##dhfdfda#fdgdfda#dd#dgdhdedddeddheddd",
"ddddhdddidddidddi#fd##fdhddd##fdddfda#fdfdfd##fdkdfda#fdeddh##ddhddd##jdfaddfdfdfhfdfdfdfdh",
"fdfefdfdfdfdfdfdf#da#dhgdfda#dhgddh##ddiddda#dhdddd##hdfdjda#fdgdfda#dded#fhdedhdeddheddhgd",
"ddhdbbbbbbbbbbbid###fddddd##fdddfda#fdfdfd##jdgdfda#fdeddd##dddddh##jdfdj#defdfdfdfdfdfdddd",
"fefdcdkbfdkbfdcdf##difdfi##difddi##ddeddha#dddddh##hdfdjda#fdkdfda#ddedddaddhddedhdedhdgdfh",
"hdddbbdddbdddbbde#fddddd##fdddfd##fdfhfd##fdgdjda#fdeddd##dddddd##fdfhfd##fdfefhfdfdfdddhdf",
"fdficdfbkdfbkdchf#hgdfi##defdhe##dehdde##dehddd##ddfhfda#fdkdfda#ddiddda##didddddedhdgdfded",
"ddddbbiddbdddbbddadddd##fddhfd##fdfdfdfdfhfdfdgdfdidddfddhdddd##jdfdfd##f#fdfdfefhfdddhdfdj",
"fifdcdfbfdfbfdcef#fdj##edfded##edhdedddiddddedddhfdfdehfdgdfda#ddeddda#dhaddhedhdddgdfdeddd",
"ddddbbdddbiddbbdd#dd#afddhfd##fdfdfdjdfdfdghfdjdedddjddddddh##jdfdjd##fdf#fdfdfdfedhddfhfdf",
"fdficbcbcbcbcbchfaj##ddfded##ehddehddedddhddddefdfhedfdghfda#ddeddda#dhed#dibbbbbcbcbbbbdeh",
"ddddbbdidbdddbbed###efdhfd##fdfdfd..fdf..gd.f..dh..fddhdddf#fdfhfd##fdfdf#fdcbfddbddfbfbfdf",
"fifdcdfbfdfbkdcdf##ddhfed##ehddeh.fd.d.hd.dd..df.dd.dgdfdedddiddda#dheddhaddbddcifdbdidbdhe",
"ddddbbdddbiddbbdh#efdddf##fdfdfdf.dejd.gd.fh.fid....hdddjdfhfdfd##fdfdfd##fdcbiddbfdfbfbgdd",
"fdficdkbfdfbfdcdf#dhfed##ehddeh#d.dddd.df.dg.ddd.gdfefdedddeddda#dheddha##debfdcdddbdddbdfh",
"ddddbbdddbdddbbde#fddf##hfdfdf##e.fh.g.dd.dd.dfd..dd.djdfdfdfh##fdfdfd##f#fhbbddfbkdfbkbddf",
"fifdcdfbfifbficdj#deh##edddeh##dfd..ddf..jd...efd...jdddehdde##dehddi##de#dfbfdbiddbdddcdhe",
"ddddbbbbbbbbbbbddadf##dfdfhf##eddhefddhfedfdfhddhfdddfefdfdf##fdfdfd##fdf#debbcbcbcbcbbbfdf",
"fdficdfbfdfbfdcdf#d##edhded##dfdfdddfeddfdhedfdgddghdddhdde##diddde##dehd#jdfhdddddddfddedh",
"ddddbbdidbdddbbde###fhfdfd##gdhdefdhdfdhdgdfddddfhdfdgdfdfh#fdfdfh##fdfdfadddgdfefhgdhgdjdf",
"fifdcdfbfdfbkdcdj##eddded##dhfdfd##gddfed##dhgdhd##eddhde##deddhe##dehddd#fdddhdddddfddddde",
"ddddbbdddbiddbbddafdjdfd##kddded##ddjddf##dgddfda#fdfdfd##fdjdfd##fdfdfe##hgdfdfdjdddfdfefh",
"dfdkbficdfdcdfbfd#ddded##ddfdfh##kdddgd##iddfdd##ddhded##ehdded##edhded###dddheddefdiddhddd",
"ddddbbdddbdddbbif#jefd##kdddid##ddfddh##dfddhg##fifdfd##jdfdfd##fhfdfd##jafdfdfdfdhfdfdgdfd",
"dkdfbcbcbcbcbcbdd#ddd##ddfdfd##gddhgd##gddjed##ddddde##edddeh##eddded##ed#dheddhdfdddeddhde",
"ddddddddiddiddfdg#fh#ajddehd#addjddd##ddjddf##dghfdf##jdfdjd##fdjdfd##jdf#fdfdfeddgdjdfdfdf",
"dfdkdfifdfdfddidd#da#ddfdfd##fdddgd##gdddgd##edddde##dddedd#adddedd#addddaddhedfhddddddiddd",
"ddddddddddddkdfdf###fddidd#addjedd##dhfddd##djdfdj##hgdfhf##fdjdfd##jdfej#fdfdddfdfifdfdfdf",
"dkdfdfdfifddddddi##ddkdfd##fhddfd##kdddgh##gddded##eddddda#ddeddda#ddeddd#didfheddddddedhed",
"ddddidddddfifdfdf#fedddd#addfedd#addfddd##ddjdfh##fdfhfe##fdjdfd##jdfdjd#afdddfdfhgdfhfdfdf",
"dfdfdfdkddddddidd#djdfda#fhddfh##jdddkd##gddded##eddded##dheddda#ddeddda##dfdedhdddddddddhe",
"ddidddddfdfdkdfdfaddde##hdfedd#addfedd##ddjdfd##fdjdfd##fefdfd##jdfdjd##f#difdfdgdfhgdfifdf",
"dfdfdkdddiddddddd#fdj##fdedfh##fddhfd##gddded##ehdded##iddddha#ddeddda#ddafdddhdddddddddddd",
"idddddfdfdfdfdkdf#id##defdhd#addfedd#adhfdfh##fdfdfd##fdfdje##fdfhfd##fdj#ddjefdfifdfhfdghf",
"dfdkdddidddiddddd#f##efhdfda#fddhfd##fddded##ehddeh##iddded##ddiddda#dhed#deddddddddedddddd",
"ddddfdfdfdfdfdfif##adddfde##ddjedd#adhfefh##fdfdfd##fdfdjd##fefdfd##fdfdf#fdfdjefdjdfdjefdg",
"dkdddidddidddiddd##dfhdef##fhedfd##fddddd##edddid##eddhed##edhddda#dhedddadhdeddddeddddddhd",
"ddfdfdfdfdfdfdfdfadddgdd##hefddd#adhfefh#afdfhfd##fdjdfd##fdfdfe##jdfdfd##fdfdfhfdfhfefhfdf",
"dddidddidddiddded#fhddf##efddfha#fddddd##dddded##eddded##edhded##ddeddha##dehddedddeddddedd",
"fdfdfdfdfdfdfdjdf#dgdd#ahddfhe##ddjefh#afdfifd##fdjdfd##fhfdfd##jefdjd##f#jdfdfdjdfdjdfdfhf",
"didddidddidddedddahdf##dfddef##fdeddd##dddddd##ehdded##iddded##eddddda#ddadddehddedddedhded",
"fdfdfdfdfdfdjdfdj####a###a#####a#####a###a###a#####################a######fdjdfdfdjdfdfdfdd",
"dddidddidddedddedfdedhddhfdhdeddfdfefdfdjdfhfdfdfefdjefdfefhfejdfifdfdfefdhedddehddedhdedjd",
"fdfdfdfdfdjdfdjdddfhfdfeddfefdjddiddhddedddeddheddhddddddhddddddddddhedhdfdfdfhfdfdfdfdfddd",
"didddidddedddedfdidddedfddddhddgdfdfdgdjdfdfhfdfdfdgdfhgdfdgdfdgdfhgdfdfdeddhedddehddehdfef",
"fdfdfdfdjdfdjdddfdfdfhddjefdfedddddedhbbbbbbbbbbbbbbbddddddhddhddddddddejdfdfdfdjdfdfdfddhd",
"dddidddedddedfdidddidfdedddhdfdjdghfdfbcdfdcdcecbfdcbfdjefdfefdfejdfdkdddddidddedddehddgdfd",
"fdfdfdjdfdjdddfdfdfdddfdfhfedddeddddddbddbiddbddbbhdbdedddhddddhdddeddfdfifdfdjdfdjdfddhddf",
"didddedddedfdidddidfdidddedfdjdfdfdjdfbcifdcdchcbfecbfhfdfefdjefdfdjdddidddddedddedddgdfded",
"fdfdjdfdjdddfdfdfdddfdfdjddddeddheddedbddbdddbedbbddbdddeddhdddddiddfefdfdfifdfhfdfdhdddjdf",
"dddedddedfdidddidfdidddedfdkdfdfdfdfhfbcdfdcicdcbfdcbfejdfdfefdjdfdddhdddidddddeddhgdfdeddd",
"fdjdfdjdddfdfdfdddfdfdjdddddddheddhdddbddbiddbddbbdhbdddddiddddeddfifdfefdfdfifdfdddddjdfdd",
"dedddedfdidddidfdidddedfdkdfdgdfdfefdgbcifdcdcdcbfecbfhfefdfdjdfdhdddddhdddiddddhgdfhedddkd",
"jdfdjdddfdfdfdddfdfdjdddddddhdddhdddhdbddbdddbddbbddbdeddddhedddgdfdghfdfefdfdfeddddfdfdddd",
"dddedfdidddidfdidddedfdkdfdgdfdgdfdfdfbcdfdcdcicbjdcbfdjdfefdfdhdddhdddedhdddidfdjdeddhgdfh",
"fdjdddfdfdfdddfdfdjdddddddhdddhdddiddebbbbbbbbbbbbbbbhddedhdddgdfdgdfdfhfdfefddddefdjdddddf",
"dedfdidddidfdidddedfdkdfdgdfdgdfdfdfdjdfdfdkdfdfdfdfefdfdfdfehdddhdddidddedhdfdkdddddgdfhed",
"jdddfdfdfdddfdfdjdddddddhdddhdddiddddddehddddddeddiddddidddhfdfdgdfdfdfdfhfddeddfdjeddhdfdf",
"dfdidddidfdidddedfdkdfdgdfdgdfdfdfdkdfdfdfefhgdjdfdfdjdfdfedddehdddidddidddgdjdddedfdfdeddd",
"ddfdfdfdddfdfdjdddddddhdddhdddidddddddidddhddddddddhedddehfdfhfdfdfdfdfdfddhddfejdddhefdjdf"
};
