/* XPM */
static char *f0[] = {
/* width height num_colors chars_per_pixel */
"    24    24        3            1",
/* colors */
". c #003399",
"# c #336699",
"a c #ffffff",
/* pixels */
"aaa.................aaaa",
"aaa.................aaaa",
"aaa.................aaaa",
"aaa.................aaaa",
"aaa................#aaaa",
"aaa......aaaaaaaaaaaaaaa",
"aaa......aaaaaaaaaaaaaaa",
"aaa......aaaaaaaaaaaaaaa",
"aaa.................aaaa",
"aaa.................aaaa",
"aaa.................aaaa",
"aaa.................aaaa",
"aaa.................aaaa",
"aaa......aaaaaaaaaaaaaaa",
"aaa......aaaaaaaaaaaaaaa",
"aaa......aaaaaaaaaaaaaaa",
"aaa......aaaaaaaaaaaaaaa",
"aaa......aaaaaaaaaaaaaaa",
"aaa......aaaaaaaaaaaaaaa",
"aaa......aaaaaaaaaaaaaaa",
"aaa......aaaaaaaaaaaaaaa",
"aaa......aaaaaaaaaaaaaaa",
"aaa......aaaaaaaaaaaaaaa",
"aaa......aaaaaaaaaaaaaaa"
};
