/* XPM */
static char *f1[] = {
/* width height num_colors chars_per_pixel */
"    24    24        3            1",
/* colors */
". c #003399",
"# c #336699",
"a c #ffffff",
/* pixels */
"aaaa......aaaaaaaaaaaaaa",
"aaaa......aaaaaaaaaaaaaa",
"aaaa......aaaaaaaaaaaaaa",
"aaaa......aaaaaaaaaaaaaa",
"aaaa......aaaaaaaaaaaaaa",
"aaaa......aaaaaaaaaaaaaa",
"aaaa......aaaaaaaaaaaaaa",
"aaaa......aaaaaaaaaaaaaa",
"aaaa......aaaaaaaaaaaaaa",
"aaaa......aaaaaaaaaaaaaa",
"aaaa......aaaaaaaaaaaaaa",
"aaaa..........#......aaa",
"aaaa.................aaa",
"aaaa.................aaa",
"aaaa.................aaa",
"aaaa.................aaa",
"aaaa......aaaaaaaaaaaaaa",
"aaaa......aaaaaaaaaaaaaa",
"aaaa......aaaaaaaaaaaaaa",
"aaaa................#aaa",
"aaaa.................aaa",
"aaaa.................aaa",
"aaaa.................aaa",
"aaaa.................aaa"
};
