/* XPM */
static char *f3[] = {
/* width height num_colors chars_per_pixel */
"    24    24        3            1",
/* colors */
". c #003399",
"# c #336699",
"a c #ffffff",
/* pixels */
"aaaaaaaaaaaaaa......aaaa",
"aaaaaaaaaaaaaa......aaaa",
"aaaaaaaaaaaaaa......aaaa",
"aaaaaaaaaaaaaa......aaaa",
"aaaaaaaaaaaaaa......aaaa",
"aaaaaaaaaaaaaa......aaaa",
"aaaaaaaaaaaaaa......aaaa",
"aaaaaaaaaaaaaa......aaaa",
"aaaaaaaaaaaaaa......aaaa",
"aaaaaaaaaaaaaa......aaaa",
"aaaaaaaaaaaaaa......aaaa",
"aaa......#..........aaaa",
"aaa.................aaaa",
"aaa.................aaaa",
"aaa.................aaaa",
"aaa.................aaaa",
"aaaaaaaaaaaaaa......aaaa",
"aaaaaaaaaaaaaa......aaaa",
"aaaaaaaaaaaaaa......aaaa",
"aaa#................aaaa",
"aaa.................aaaa",
"aaa.................aaaa",
"aaa.................aaaa",
"aaa.................aaaa"
};
