/* XPM */
static char *f6[] = {
/* width height num_colors chars_per_pixel */
"    24    24        3            1",
/* colors */
". c #003399",
"# c #336699",
"a c #ffffff",
/* pixels */
"aaaaaaaaaaaaaaaaaaaaaaaa",
"aaaaaaaaaaaaaaaaaaaaaaaa",
"aaaaaaaaaaaaaaaaaaaaaaaa",
"....#aaa.....aaaaaaaaaaa",
".....aaa.....aaaaaaaaaaa",
".....aaa.....aaaaaaaaaaa",
".....aaa.....aaaaaaaaaaa",
".....aaa.....aaaaaaaaaaa",
".....aaa.....aaaaaaaaaaa",
".....aaa....#aaaaaaaaaaa",
".....aaa.....aaaaaaaaaaa",
".....aaa.....aaaaaaaaaaa",
".....aaa.....aaaaaaaaaaa",
".....aaa.....aaaaaaaaaaa",
"........................",
"........................",
"........................",
"........................",
"........................",
"........................",
"aaaaaaaaaaaaaaaaaaaaaaaa",
"aaaaaaaaaaaaaaaaaaaaaaaa",
"aaaaaaaaaaaaaaaaaaaaaaaa",
"aaaaaaaaaaaaaaaaaaaaaaaa"
};
