/* XPM */
static char *f7[] = {
/* width height num_colors chars_per_pixel */
"    24    24        3            1",
/* colors */
". c #003399",
"# c #336699",
"a c #ffffff",
/* pixels */
"aaaaaaaaaaaaaaaaaaaaaaaa",
"aaaaaaaaaaaaaaaaaaaaaaaa",
"aaaaaaaaaaaaaaaaaaaaaaaa",
"aaaaaaaaaaaaaaaaaaaaaaaa",
"........................",
"........................",
"........................",
"........................",
"........................",
"........................",
"aaaaaaaaaaa.....aaa.....",
"aaaaaaaaaaa.....aaa.....",
"aaaaaaaaaaa.....aaa.....",
"aaaaaaaaaaa.....aaa.....",
"aaaaaaaaaaa.....aaa.....",
"aaaaaaaaaaa.....aaa.....",
"aaaaaaaaaaa.....aaa.....",
"aaaaaaaaaaa.....aaa.....",
"aaaaaaaaaaa.....aaa.....",
"aaaaaaaaaaa.....aaa.....",
"aaaaaaaaaaa.....aaa#....",
"aaaaaaaaaaaaaaaaaaaaaaaa",
"aaaaaaaaaaaaaaaaaaaaaaaa",
"aaaaaaaaaaaaaaaaaaaaaaaa"
};
