/* XPM */
static char *uniform[] = {
/* width height num_colors chars_per_pixel */
"    86    88       13            1",
/* colors */
". c #000000",
"# c #0000f0",
"a c #0000f8",
"b c #00f800",
"c c #00fc00",
"d c #f0f8f0",
"e c #f0f8f8",
"f c #f0fcf0",
"g c #f0fcf8",
"h c #f8f8f0",
"i c #f8f8f8",
"j c #f8fcf0",
"k c #f8fcf8",
/* pixels */
"dddddddddddddddddddddddddddddddddddddddddddddddddddddddddddddddddddddddddddddddddddddd",
"fdkdfifdkdfifdkdfifdkdfifdkdfifdkdfifdkdfifdkdfifdkdfifdkdfifdkdfifdkdfifdkdfifdkdfifd",
"dddddddddddddddddddddddddbbbbbbbbddddddbbbbbbbbddddddbbbbbbbdddddddddddddddddddddddddd",
"fdfdfdfdfdfdfdfdfdfdfdfdfbcdfdcdcdfdfdfbfdcdfdcdfdfdfbcdfdcbfdfdfdfdfdfdfdfdfdfdfdfdfd",
"ddiddiddiddiddiddiddiddidbddbdddbdiddidbbdddbdbdiddidbddbddbdiddiddiddiddiddiddiddiddi",
"fdfdfdfdfdfdfdfdfdfdfdfdfbcdkdcdcdfdfdfbficdkdcdfdfdfbcdkdcbfdfdfdfdfdfdfdfdfdfdfdfdfd",
"dddddddddddddddddddddddddbddbddibddddddbbdddbdbddddddbddbddbdddddddddddddddddddddddddd",
"fdkdfifdkdfifdkdfifdkdfifbcdfdcdcdkdfifbfdcdfdcifdkdfbcdfdcbkdfifdkdfifdkdfifdkdfifdkd",
"dddddddddddddddddddddddddbidbdddbddddddbbiddbibddddddbidbidbdddddddddddddddddddddddddd",
"fdfdfdfdfdfdfdfdfdfdfdfdfbcdficdcdfdfdfbfdcdfdcdfdfifbcdfdcbfdfdfdfdfdfdfdfdfdfdfdfdfd",
"ddiddiddiddiddiddiddiddidbddbdddbiddiddbbddibdbddidddbddbddbdiddiddiddiddiddiddiddiddi",
"fdfdfdfdfdfdfdfdfdfdfdfdfbcdfdcicdfdfdfbkdcdfdcdfdfdfbcdfdcbfdfdfdfdfdfdfdfdfdfdfdfdfd",
"dddddddddddddddddddddddddbdibdddbddddidbbdddbdbidddddbdibdibdddddddddddddddddddddddddd",
"fdkdfifdkdfifdkdfifdkdfifbcbcbcbcdfifdfbcbcbcbcdfdkdfbcbcbcbfifdkdfifdkdfifdkdfifdkdfi",
"dddddddddddddddddddddddddddddddddiddddddddddidddiddddidddddddddddddddddddddddddddddddd",
"fdfdfdfdfdfdfdfdfdfdfdfdkdfifdkdfdfdfdfdkdfdfdfdfdfdfdfdfdfdfdfdfdfdfdfdfdfdfdfdfdfdfd",
"ddiddiddiddidda##a##a##############a##a####a##a###a######a##a##a##a##a#hedhedhedhedhed",
"fdfdfdfdfdfdfd#hd##hddhed##dddded##dhdddd##ddhddh##dheddd##hddhdd##hdd#fdfdfdfdfdfdfdf",
"ddddddddddddhf#f##dfdgdf##efdgdf##efdfdja#djdfdg##dgdfdja#dfdfdf##dfdf#ddddddddddddddd",
"fdkdfifdkdfedda##eddddd##ddhddh##dhdded##ddeddd##ddddhd##ddedde##iddeh#ghfejdghfejdghf",
"dddddddddddjdf##dfhfej##efdfdf#adfdgdj##dgdfdja#dghfdg##dghfdj##dfdfdf#ddddddddddddddd",
"fdfdfdfdfhdddd#dhdedd##ddhded##ddddhd##eddhdd##dddddd##dddddd##dddhdd##fdfdfdfdfdfdfdf",
"ddiddiddefdgdfafdfdf##efdfdf##ejdgdf#adfdfdg##dfhfef##ejdfdg##efhgdfa##iddiddiddiddidd",
"fbcbcbcbbbbbhd#ddeh##ddhded##hddddh##dddhed##didddd##hdddeh##dddddd##d#fdfdfdfdfdfdfdf",
"dbddbddfbfdcdf#kdf##efdfdf##efdfdfa#dfdgdf##dfdfdg##efdfdf##dfhfdf##dj#ddddddddddddddd",
"fbcdfhbdhdbbde#dd##ddhded##hdddid##ddiddd##ehddeh##hdddid##eddedda#hed#ghfejdghfejdghf",
"dbdibfefbfechf#f#adjdgdf##efdfdf##dgdfdf#ahfdfdf##dfdgdf##dfhfdf##dfdf#ddddddddddddddd",
"fbcdddbdddbbdd#a#dddddd##hdddid##edhddda#ddddeh##ddehdd##eddddd##hdddd#fdfdfdfdfdfdfdf",
"dbdfbfhfbjdcdg##djdgdj#adfdgdf##dfdfdg##hfdghf##efdfdf#adjdfej#adfefdg#diddiddiddiddid",
"fbbiddbeddbbdh#ddeddd##dddhdd##edhded##ddeddd##dddhdda#dddddd##dddhdd##fdfdfdfdfdfdfdf",
"dcbcbcbcbcbcef#fdfhf#adfhgdf#adjdfdf##hgdfhf#adfhgdf##djdgdj##dfhfdf###hdddddddddddddd",
"dddddddddedddd#ehdda#dddddd##dddded##eddddda#dddddd#adddddd#addedde##i#fefhgdjefhgdjef",
"dfifdgdfdfhfdk#fdf##dfhgdf#adjdgdj##hfdfhg##dfhgdf##djdgdj##dfdfdf##df#ddddddddddddddd",
"iddddhddiddedd#dda#ddeddd##hddddd##eddded##ddeddd#ahddddd#adddhdd##ddd#fdfdfdfdfdfdfdf",
"dfdfdfefdfdfdf#g##djdfdj#adfdgdj#adfdjdf##dghfdf##dfdgdj##dfdgdfa#hgdjadhedhedhedhedhe",
"dddiddddddhddi###ddeddda#ddddhdddfdhdedddghddddidfheddddadddhdd##ddddd#fdfdfdfdfdfdfdf",
"dfdfdfhfdfdgdf##dkdfdj##dfhgdfdgdhdgdfdjdddfdgdfdddfdjdfdfhgdf##dfdfdf#ddddddddddddddd",
"didddeddehdddd#eddddda#ddedddddhdfdddhdedfdehddddgdhdeddheddd#adhedhe##kdfifdkdfifdkdf",
"dfdfhfdfdfdfhg#jdfdk##dfdfdj#gdfdedjdgdfdhdfdfdkdddfdfdfdfdf##dfdfdf###ddddddddddddddd",
"dddedddhdedddd#dded##ddehdda#dh..ddd..dd.d..de..dfheddheddha#dhdddd##d#fdfdfdfdfdfdfdf",
"dfhfdfefdfhfef#fhf##dghfdf##df.df.f.df.dg..df.df.ddfdfdfdf##dfefdk##ej#ehdehdehdehdehd",
"dbbbbbbbbbbbdd#ed##eddddda#ddd.edhe.de.hd.deh....iddheddha#ddddhd##ddd#fdcbcbcbcbcbcbf",
"icdgbfdfbfdcdj#f##dfhfdg##djef.jdfd.jd.fd.fdf.dhfdfdfdfd##fdghfd##fdfd#ddbddbdddbdddbd",
"dbbdhdbdhebbde###eddded##hdddd.dd.d.df.df.hdd..dd.dedhdg#ddhddda#dedhg#jecbfdfbfdfbfbg",
"dcdfbfefbfdcdf##dfhfdf##dgdfdjd..gdd..eh...fdf...gdjdfddhfefdf##fdjddd#ddbdhbehdbehdbd",
"dbbdedbdddbbhdadddedd##idddhedfedhfdifdfddedhefddhdddedfddddda#dhddfd##fdcbgdfbfdfbfbf",
"icdjbfhfbfhcdf#fhfdf#adfdfdf#ddfdddfddddgdjdfddjefdfdjddejdf##hfefde##adhbddbdddbddebh",
"dbbbbbbbbbbbed#dedd##hdddid##fdhfeddfhgdhddddfeddddidddfddda#dddddj##f#fdcbcbcbcbcbcbf",
"dfdfdfdfefdfdf#fdj#adfdgdf##edfedf##eddfdfa#dhfdfh##fdehfd##jdgdjd##dd#iddddhdehdehddd",
"ddddeddddddiddahd##dddhdd##dfhddd##hfddde##fdeddda#ddfddda#dddddda#dgh#fdfifdfdfdfdfdk",
"ifdjdfhgdjdfdf#f#adfhgdf#adhddfd#afddfif##ddfdjd##fdidfd##fdghfd##fddf#deddddedddddidd",
"dddedddddddddh#a#dddddd##dfdgdda#hdfedd##dkddde##defddda#hddddda#dhfde#fdfdfhfdjefdfdf",
"dfdfdfdfefdkdf##dfdgdf#adhdddj##fdddjd##gdddfh##fdhdfd##fdgdjd##fdeddh#dhdedddedddhdde",
"diddhedhddddddadddhdd##hfdgdd##ddghdd#addhfde##defdde##hedddda#dhfdfd#afdfdjdfdfhfefdd",
"dfdfdfdfdfhfef#fdgdf#adddddj#adfhdfda#fdfded##fdhdfd##fdfdjd##fdeddha##ddiddedhdedddjd",
"dddedddehdeddd#dhdd##hfdghd##dddgdd##ddhedf##difdde##heddde##defdjd##f#fdfdfdfdfdfhded",
"dfhfdjdfdfdfhfafdfa#ddeddf#adfdddf##fhgdfd##kdddfd##fdfdjd##fdhddda#ddadhdddheddhdgdfd",
"dedddeddddhded#dd##dfdjdd##ddhgdh#adddddd#addfddi##heddde##defdfe##fdf#fdgdfdfdfedddhd",
"hcbcbcbcbcbcdf#ja#dheddfa#djeddf##dfhgdf##hfddkd##fdfdjd##fdhddd##dhed#hddhdedhdfdjdgd",
"dbbdddbhdebbdda##dfdfdd##dddfdd#adddddd#adddgdd##dedhde##defdfe##jefdf#gdfdfdfddddeddd",
"dcdfbjdgbfdcdj##ddedhfa#djeddja#dfhgdf##hfddhf##gdjdfd##fdhddd##dddddh#dddehddghfdfdjd",
"dbbhedbdddbbde#dfdjdd##dddfdd##dddddd#adddgdd#addddde##defdfe##jefdje##fifdfdddddehddg",
"hcdfbfdfbjdcdf#diddfa#dfiddja#dfifdfa#hfddhf##dfhfef##fhdddh##dddddd###dddddkdfdjdfddd",
"dbbdddbhedbbdhafdfd##dddfdd##dddddd##dddgdd#adddedd##hefdfe##fefhfe##fafdjeddddedddghf",
"dcefbjefbfdcef#ddda#djeddfa#dfefdja#hfedhf##dfhfdf##efdddh##ddhddd##dd#dddfdfhfdfdhddd",
"dbbbbbbbbbbbdd#fi##fddfdh##ddhddd##dddfdd#adddedd#ahddfhg##fefdfe##fif#jeddhedddifdfef",
"ifdfdfdfdfdjdfad##ddkddfa#dfefdfa#dfehdfa#dfhfdf##dfdded##dddddd##dddd#dfdfdfdfdddddhd",
"dddhddddiddedd###feddfd##ddhddd##ddhfdd##dhdedd#ahddghf##dghfdk##fifdfadhdeddhefdfifdd",
"dfefdghfdfdfhf##ehfddha#dfefdfa#hfeddfa#dfefdf##dfdddd##eddddd##dddddh#fdfdjdfddhdddfd",
"dhddddddddhded#fdddfe##fdhddd##dddfdd##dhdddh#ahddghf#adfhfdg##dgdfhg##dehddedfdgdfdif",
"efdfhfefhgdfdf#ifddh##ddgdfda#jdgdhfa#dfefdfa#dfdddd##dddded##dhdddd###fdfdfdhddddhfdd",
"dddeddddddddhe#ddfe##fedhdd##ddddfd##dhdddh##dddkdf#adfhgdf##hgdfdk##dadddehfdgdjdedfd",
"dfhfdfhfdfifdf############a###a###a###a###a###a#############a##########fhfdddddddfddhg",
"dedddeddedddddfehdfeddfdgdfhfdjdfhddfdfdfdfdfdfdddedddedddidddddedddedddedfdghfdedjddd",
"hfdfhfdfhfdfedhfdddjddiddhddedddefddidddedddiddjefhfdjdfhfdfdfefdfdfdjdfdhdddddfhddgdf",
"dddeddddddehfdddgdddgdfdfdgdcbcbbbcbfdfhfdjdfddddbbbbbbbbeddhddhddidddedfdgdjdedfdddhd",
"dfhfdfifdfdddfedhfddddddedddbddfbddbdhedddeddfefdcdfbfdgbfdfefdfefdfdfhdddhddfdddghfdf",
"dedddddddifddhfdddghfdkdfhfdchbdjdcbfdfdfdfdhddhdbbdedbdbdhddddddddhedfdgdfdedjddddded",
"hfdfifdfdddfeddfehddddddddddbfedbdebdedhedhfefdfecdjbfhfbfdfdkdfhfefdddhdddfhddgdjdfdf",
"dddddddifddhfddhfdfdgdfdgdjebdcdfdcbjdfdfddddddddbbdddbdbdehddddedddjdgdfdidfdddddedhd",
"dfifdfdddfeddfedddehddhddddfbdhdbhdbdddddgdfhgdjdcdfbgdfbjdfdfefdjddedddhfdddghfdfhfdf",
"dddddifddhfddhfdfhfdfdgdfhddcdcefdcbfdjedhddddddebbiddbhbeddehddddgdfhfdedfdhdddeddded",
"ifdfdddfeddfedddedddeddhdgddbeddbdebdedfdfdgdfdfdcdfbfdfbfdfdfdfiddhddefddhgdfdfhfdfhd",
"dddifddhfddhfdfhfdfhfdfdddfdchcdjdcbjddddehddhedhbbddhbebddhddedfdfdgddhfdddddidddedfd",
"dfdddfeddfedddedddedddifddidbdddbddbdfdkdfdfdfdfdcdfbgdfbfefdfhdddeddjddefdfifdfdfhddd",
"difddhfddhfdfhfdfhfdfdddfdfdcdcefdcbdidddddedddedbbeddbhbdhddefdfhfdddgddhddddddidfdgd",
"dddfeddfedddedddedddifddidddbbbbbbbcdfdfdkdfhfdjdcbcbcbcbfdgdddheddfiddfdfefdfifddddhd",
"fddhfddhfdfhfdfhfdfdddfdfdfifdfhfdhddddidddddeddddhddhdddeddjdfdfdddfddheddhddddfdkdfd"
};
