/* XPM */
static char *variable[] = {
/* width height num_colors chars_per_pixel */
"    91    90       13            1",
/* colors */
". c #000000",
"# c #0000f0",
"a c #0000f8",
"b c #00f800",
"c c #00fc00",
"d c #f0f8f0",
"e c #f0f8f8",
"f c #f0fcf0",
"g c #f0fcf8",
"h c #f8f8f0",
"i c #f8f8f8",
"j c #f8fcf0",
"k c #f8fcf8",
/* pixels */
"ddhfdfhfddhddddhdddhdddidddddddidddidddhdddddddheddjefdfdgdfdgdfdghdddifdfedddefdfefhfdfifd",
"fdedddedfdgdfdgdfdgdfdfdfdkdfdfdfdfdfdgdfdkdfdgdfddddddhdddhddddhdfdfdddddjdfdhdddhdddedddf",
"hfdfhfddhdddhdddhdddhebbbbbbbbddidddidddhddddhdddjefdcbcbcbcbficbbbbbcbcedddefdfefdfefhfddi",
"edddedfdgdfdgdfdgdfdfdcdcdfdcbkdfdfdfdfdgdfdgdfdedddhbdebddebddbcdfebdebjdfdhdddhdddhdddgdf",
"dfhfddhdddhdddhdddheddbhddbddbddddidddidddhdddhfdfhfecbfhfbfbfdbddbjdfbbdddgdfefdfefdfedhdd",
"ddedfdgdfdgdfdgdfdfdfhcdcefhcbfdkdfdfdfdfdgdfdedddeddbddbddhbdjbcdddbdjbfdhdddhdddhdddjdfdg",
"hfddhdddhdddhdddhedddebdddbdebddddddidddidddhfdfhfdfdcbfefbfbedbdgbfedbbdgdfdfdgdfdgddddedh",
"edfdgdfdgdfdgdfdfdfhfdcdcdfdcbfhfdgdfdfdfdfdedddeddddbdhbddecdfbbhddcdfbdddheddhdddhfdgdjdf",
"ddhdddhdddhdddhedddeddbdidbdhbdeddhdddidddifdfhfdfhfdcbfdfbhbdhcdfbdhdbchfefdfdfefddedhddde",
"fdgdfdgdfdgdfdfdfhfdfhcdcdfecbfdfdfdgdfdfdddddedddeddbedbhfdcddbbdgdcdebddddhdedhdfdjdfdgdj",
"idddhdddhdddhedddedddebdddbddbdheddhdddhefdjefdjdfdjdcbjdebdbgdcddbddfbcdkdfdfdfddedddedhdd",
"fdfdgdfdgdfdfdfhfdfhfdcdchfdcbfdfdfefdfdddddddddedddebddcdfdbddbchfdbhdbddddehddghfdfdjdfdg",
"ddidddhdddhedddedddeddbdedbdibdehdddhdefhfefhfefhfdfdcbdddbfbjdbedbgdfbcdfifdfddddddidddedh",
"fdfdfdgdfdfdfhfdfhfdfhcbcbcbcbfdfdfdgdddddddddddddehdbcbcbbbbefbcbbbbbbbidddddkdfdkdfdfdjdf",
"idddidddhedddedddedddedddddddddddidddjdfejdfejdfejdfdddddfhfdddddfdfdgdfdfdfidddddddddiddde",
"fdfdfdfdfdfhfdfhfdfhfdfdfdfdfhfefdfdddedddddddddddddghfehdedfhfdhddiddhdddidfdfdkdfdkdfdfdj",
"ddidddidddedddeddda###a##a##a######a######a###a###a##########a##a######a###dddidddddddddidd",
"fdfdfdfdfhfdfhfdfh##dddhdd##ddddde##jdfhgd##jdfhfd##dddfdf#adddfdf##fefdfd#fefdfdfifdfifdfd",
"idddidddedddedddef#dgdfdf##hfejdf##ddeddd##deddde##fefded##dfdddda#dddddda#dhdddidddddddddi",
"fdfdfbcbcbcbcbcbhd#ddhde##eddddda#hfdfdf##kdfdfd##dhddjd##ghdfif##djefhf###fdfefdfdfifdfifd",
"ddiddbbhddbhddbcdfafdfd##fdfdfe##fdedhda#ddddhe##fefddd#addfddd##dedddda#d#edhddddidddddddd",
"dfdfdcdfbfdfbfhbdd#dhe##dhdehd##ddfhfd##fdfhgd##dhddfe##fhddgd##ghfdfd##fh#fdfdfifdfdfifdfi",
"idddibbdehbdedcbgd#fd##fefdfd##fiddde##dehddd##fefddh##ddfedh##dddddi##ded#didddddddidddddf",
"dfdfdcdfbfdfbddbdj#e##ddhddda#ddfdfd##fdfdfe##ddddje##fehdfd##gdjdgd##fdjd#fdfdgdfhfdfdfidd",
"ddiddbbdddbhfdcbde###fefdfe##jdedhe##didddd##fifddd##ddfddd#adddddd##deddfaddhddhdedddidfdf",
"dfdfdcdkbfedbehcdf##ddhddd##ddfdfd##fdfdfi##ddddfi##fedhfe##fhfdgh##gdjddd#fdgdfdfdfhfddddi",
"idddibbdddcdfdbbdd#ghfdgd##jeddhd##ehdded##fejddd##ddfddd##dddedd##ddddfe##hddddedhdedfdkdf",
"dfdfdcbcbbbbbcbcej#ddddd##edfdfe##fdfdfh##ddddfe##fehdfe##fifdfh##gdjded###gdfhfdfdfddhdddd",
"ddidddddfhfdhddddd#fefh#ajdddhd##deddid##gdfhed##dhfddd##hddddd#addddfd##j#dddeddhedfdgdfdk",
"dfdfdfdhdddfdgdjdg#ddd##ddfdgd##gdjdfd##ddddfd##feddfe##fefdfi##fdfdeh##ed#fifdfdfddhdddhdd",
"idddibcbcbbbbbbbdd#fha#fddidd##dddddd#afdjedd##ehfddh##hdddhd##dddifd##fdf#ddddhedfdgdfdgdf",
"dfdfdbdebfefbfdcdfad##ddgdfd##ghfdfha#ddddfd#ajdddfe##fefdfe##fefddd##edhdafdjefddhdddhdddh",
"ddidfbcdddbdhdbbid###fehddd#adddded##fdjedd##ddfdeh##dddhdd##ddhdfd#afhfdf#hddddfdgdfdgdfdg",
"dfdddbdfbjdfbgdcdf##ehfdfda#jdfdjd##ddedfd#ajddejd##fefdfe##fifdde##hddded#fefdheddhdddhddd",
"idfdkbbhedbeddbbdd#fdddde##dddedd#afdjddd##ddfddd##eddhdd##ddddfd##fdfefh##ddhfdfdfdgdfdgdh",
"dddddcdfbfdfbjdchfahfdgh##jdgdjd##dddefd#ajddejd#afdjdfe##fifddi##heddhd##afddeddheddhdddfd",
"fdkddbbdddbhddbbdd#dddd##dedddd#afdjdddjdddfdddfddhddedfdhdddfd##fdfdfd#af#djdfdfdfdfdgdhde",
"dddfdcbcbcbcbcbcdg#fej##gdfhfda#dddefddefddifddejdfefdhdfefddi##dedhde##dd#deddheddheddfdfd",
"kdddidddhddddddedd#dd##ddddde##fhfddhfddhfdddfhdddddhfdedddjd##fdfdfd##fdfafdjdfdfdfdfhdedh",
"dfdfdfdgdfefdgdjdf#j#adfdjef##ddedfdedfdedfdidfdgdjddefdjdde##dedhde##didd#hddeddhedddgdfdf",
"ddidddhdddhddhdddd#a#dddedd##fifddh..dhf..hf.d..dd..fddddgdf#fdjdfd##fdfdf#fefdjdfdfhdddhde",
"dfdfdgdfdfdfdfdgdj##dfdjdf##edddfd.fd.e.df.dd..fd.fe.djeddhddeddde##didddi#ddhddedddgdfdgdf",
"idddhdddiddedddhddadddedd#adjdfdif.efdf.dd.ef.dif....ddfdfdgdjdfd##fdfdfd##fdfefdjdddhdddhd",
"dfdgdfdfdfdjdfefdf#fdjdf##ddddef#d.dhdd.je.hd.fdd.ddfddhdedhddde##heddhe###edddhddgdfdgdfdg",
"ddhdddidddddedhddd#eddda#djdgdh##d.fd.f.df.fd.ddd..he.fefdfdfef##fdfdfd##f#fhfdfeddhdddhddd",
"dgdfdfdfdkdfdfdfef#jdf##ddeddf##dfd..ehf..dd...kdf...dddhddedh##heddhe##de#ddeddfhfdgdfdgdf",
"hdddidddddddhdedhd#de##dkdfdh#addehdfddddfifdkddddgdfdjdfefhf##efdfdf##fdj#fdjddddeddhdddhd",
"fdgdfdfifdfefdfdfdaf##dddddfa#dfdfddefdghdddddfdfhddhdeddddd#adddhde##dedd#eddfejdfdfdgdfdg",
"ddhdddddddhdddhdef###dkdfdi##dddhdgdhdddfdfdfddidfdfefdfhfdg#dfhfef##djdfd#fhddddddheddhddd",
"kdfdghfdgdfdgdfddh##eddddf##dfefdd##fdfhed#ahdfddda#ddhded##dhdedd##dedddk#dfefdfifdfdfdgdj",
"ddddddddhdddhddgdf#dfhfdi##dedhdfa#ddhefd##dfdefd##fhfefd##fdgdfd##ghfdfd##dddhddddddhedddd",
"fdkdfdkdfdgdfddhddadddef##dfdfdd##djefdd##fdehdd##hdeddd##ehdddh#adddddi###gdfdgdfdkdfdfhfe",
"idddddddddhddgdfdf#fhfd##dehddg##dedddf#adhdfdf#afdfdfh#afdfdfda#fdjdgd##d#dhdddhdddddddedd",
"fdfdkdfdkdfddhddeh#ded##efdfdd##hfdfdha#fdfedd##hddehd##ddhdeh##dddedd##fe#fdgdfdgdfdkdfdjd",
"ddiddddddddgdfdfdf#fd##fdhddg##deddhg##ddhdfh#afdfdfd#afdfefd##fdghfd##edf#ddhdddhdddddddde",
"fdfdfdkdfdhdddidddad##ehfdgd##hfdfdd##dfefdda#dddidd##ddhddd##edhddd#afhdd#kdcbcbcbcbcbcbfh",
"ddddiddddgdfdfdfdj###fddddd##deddhg##dehddf##fdjdfd#afhfefd#afhfdfda#ddfdg#ddbbeddbeddbibdd",
"fifdfdfdhdddiddded##ehfdgh##kdfdfd##dfdfdda#dheddda#dddddd##hddded##fhdedh#fdcdfbfhfbjdfbfe",
"ddddddifdfefdfdjdf#fddddd##ddddhe##dehddg##hfdfdf##fhfefh#afdfefh##ddgdfd##ddbbdhebddebdbdd",
"fdfifdddddhdddedddadfdkd##gdfhgd##fdfdfd##ddeddha#ddeddd##ddddhd##gdhddh#a#fechgbfdfbfdfbfh",
"didddfdghfdfejdfdj#dhdd##ddhddd##dehdde##hgdfhf##dfhfdj#afdjefd#addfdfda#f#dhbbdddbdddbebdg",
"fdfddbbbbbbbbbbbde#fef##gdfdgd##gdfdfd##fddddda#ddeddda#dddddd##fdhded##dd#fdcbcbcbcbcbcbhd",
"dddkdcbfdgbfdfbcdf#dd##ddhddd##dhdddi##hefdje##fdjdfd##fdfefh#addfefd##fdg#dedddddiddiddfdf",
"fidddbdibdddbddbdh#f#adjdgdf#ajdfdgd##fddddd##ddeddda#dhedhd##fdhddd##iddh#fhfdkdfdfdfddhde",
"dfdfdcbfdfbjefbcef#a#dddddd##dddedh##defhfe##fejdfd##jdfdfd#addfefd#afdfdf#ddeddddddddjefdf",
"dddidbddbhedbdhbdd##djdgdj#ahfdfhf##gddddd##dhdddda#ddeddda#fdhddd##hddded#gdfdfhgdjedddddh",
"dkdfdcbkdfbfdfbcdf#hdeddd##dddedd#addfhfe##fefdfe##jdfdjd##dhfefd#afdfejd##hddheddddfdfdkdf",
"dddddbddbdddbedbeh#gdfdj#adfdjdf##dfhded##dhdddh##ddeddda#fdeddd##hddddd###fdgdfdfddheddddd",
"dfdkdcbcbcbcbcbcdf#dddda#dddedd#adhdgdf##fefdfe##fefhfd##dhfdfh#afdfejd#af#eddddhefdfdfhfef",
"diddddddddeddddddd#fhg##dfhfdf##dfdddd##ehdddh##ddhddda#fdeddda#dddhdd##dd#jdfhgdddheddeddd",
"dfdfdkdfifdjdfhfej#ed##ddeddda#hdefdj#adfdfdg##fefdfe##dhfdfh##fdjefd#afdj#ddeddfdfdfdfdjdf",
"dddiddddddddeddddd#f##dghfdf##dfddhda#ddhdeh##dddddd##fdeddda#ddeddd##ddde#fdfddheddhdddded",
"dkdfdfdfdfefdfdgdf###a#####a###a########a#####a###a###a#############a######dehfdfdfdgdfifdh",
"dddddiddiddhddhddheddddddedhddhdfdgdfdgdfdfdgdfhfdjdfhdfhfefdfefdfefdfhgdfdjdddedhdddhdddfd",
"dfdkdfdfdfdfefdfefdfhfdkdfdfdgddddddddddddeddhddedddefddeddhddhddhddhddddhedfdfhfdgdfdfddef",
"diddddddddedddddddhdeddddddeddfhgdjdghfbcbcbcbcdfdfdddfdfhfdgdfbcbcbcbcbfdfddidddddhdedfdhd",
"dfdfdkdfifdjdfifdfefdfdfhgdjdddddddddddbhdbdddbddidfhedhddeddddbedbdedbbeddjdfdfejdfdfhdgdf",
"dddiddddddddeddddhdddhedddddfejdfefdfefbcefhcdcefdddfdfdgdfhfdkbcdfdcdfbfhdedddhdddeddfdddd",
"dkdfdfdfdfefdfdjefdfefdfdfdehddddhddhddbddbddebhdfdedddddhddeddbddbhddbbdgdfdjefdfdjddejdfd",
"dddddiddiddhddeddddhdddhedjdfdfefdfefdfbchfechcdddjdfhgdfdgdfdfbchgdcejbdddhdddddiddfddddeh",
"dfdkdfdfdfdfefhfdfefdfefdddddehddddddhebdebdddbfdeddddddhdddhddbddbdddbcdjdgdfdkdfddejdfdfd",
"diddddddddedhdddehdddhddfdgdjdfdfifdfdfbcdfdcdbdfdfdgdjdgdfdfdfbcdfdcddbeddddhddddfhdddehdd",
"dfdfdkdfifdfdfefdfdfefddiddddddeddddiddbdhbdhfbehddhddddddheddibdebhefbcdfdjefdfdidfdgdfdfd",
"dddidddddddheddhddehddfdfdfhgdfhfdfdfdfbcdgdbecdfdgdfdgdjdfdfdfbchfdbdhbdedddddifddddhdddif",
"dkdfdfdfdjefdfdfefdfddidddeddddddehddehbddbfddbdddddhddddeddhddbddbfdfbcdjdfdkdddfdkdfdgddd",
"dddddiddeddddheddhddgdfdfhfdfhgdfdfdfdfbcdhdcdchfdjefdfifdfdgdfbcdedbdebddedddfddidddddhfdf",
"dfdkdfdfhfdfefdfdfedhdddedddedddhdedhddbbcbbbbbdedddddddddhdddhbbcbcbcbcdfhfdddkdfdfdkddded",
"diddddddddehdddhedfdfdghfdfhfdfdgdfdfefdedfefdgdfdfdkdfdjefdfefdedddddddhddefhdddddiddfdfhf",
"dfdfdkdfejdfdfefddhdedddddedddidddhdddhfdhddhddhddiddddeddddhddfhfdjdfhgdfdddfefdjdfdddiddd",
"dddiddddddddehddfdgdfhfdghfdfdfdfdgdfdddfdfdfdfdgdfdfdjdfdjefdddddeddeddddkddddhdeddfifdfdf"
};
